<?xml version="1.0" encoding="UTF-8" ?>
<!DOCTYPE svg PUBLIC "-//W3C//DTD SVG 1.1//EN" "http://www.w3.org/Graphics/SVG/1.1/DTD/svg11.dtd">
<svg width="188pt" height="253pt" viewBox="0 0 188 253" version="1.1" xmlns="http://www.w3.org/2000/svg">
<g id="#ffffffff">
</g>
<g id="#010101ff">
<path fill="#010101" opacity="1.00" d=" M 14.56 117.75 C 14.51 80.82 14.34 43.88 14.65 6.96 C 18.07 7.00 21.49 6.94 24.91 7.13 C 25.11 21.99 24.97 36.86 24.98 51.72 C 42.92 51.78 60.86 51.77 78.80 51.72 C 78.73 36.81 78.67 21.90 78.83 7.00 C 82.37 6.99 85.91 6.96 89.44 7.11 C 89.63 32.97 89.44 58.83 89.53 84.69 C 103.92 69.92 118.83 55.67 133.33 41.01 C 138.31 41.05 143.28 40.88 148.25 41.13 C 130.99 59.03 113.15 76.37 95.52 93.91 C 114.60 112.96 133.68 132.00 152.70 151.11 C 147.82 151.86 142.78 151.53 137.86 151.35 C 121.49 135.51 105.85 118.91 89.55 102.97 C 89.65 119.12 89.05 135.26 89.30 151.41 C 85.78 151.55 82.26 151.51 78.75 151.48 C 78.75 121.82 78.74 92.16 78.76 62.51 C 60.85 62.49 42.95 62.57 25.05 62.47 C 24.85 80.88 25.23 99.31 24.85 117.72 C 21.42 117.78 17.99 117.77 14.56 117.75 Z" />
<path fill="#010101" opacity="1.00" d=" M 45.46 125.49 C 46.87 124.50 48.12 122.60 50.07 122.99 C 40.55 132.46 32.17 143.52 28.35 156.58 C 22.88 173.59 24.90 192.70 33.45 208.35 C 40.24 221.14 51.20 231.76 64.45 237.69 C 92.36 250.77 128.71 242.03 147.28 217.32 C 148.47 215.98 149.19 213.85 151.22 213.61 C 147.00 223.96 138.60 232.24 129.35 238.29 C 113.10 248.72 92.50 251.64 73.81 247.21 C 58.35 243.74 44.27 234.64 34.75 221.98 C 21.67 205.00 16.62 181.90 22.37 161.15 C 25.96 147.15 34.44 134.72 45.46 125.49 Z" />
<path fill="#010101" opacity="1.00" d=" M 35.73 169.05 C 34.98 163.03 43.67 161.38 47.04 165.31 C 46.51 165.76 45.47 166.67 44.95 167.12 C 43.07 164.96 37.69 165.30 38.57 168.99 C 40.75 172.05 47.16 171.05 47.04 176.00 C 47.22 182.19 38.37 183.25 35.02 179.15 C 35.55 178.68 36.61 177.74 37.13 177.27 C 39.04 180.35 45.59 179.34 43.97 175.14 C 41.10 173.40 36.11 173.24 35.73 169.05 Z" />
<path fill="#010101" opacity="1.00" d=" M 145.56 163.63 C 148.58 162.71 152.14 163.24 154.56 165.35 C 158.87 169.00 158.56 176.67 154.01 180.00 C 150.05 182.58 143.90 182.08 141.13 178.00 C 137.60 173.25 139.67 165.34 145.56 163.63 M 146.17 166.16 C 141.23 168.04 140.86 175.78 145.39 178.32 C 149.27 180.77 154.82 177.59 154.85 173.05 C 155.59 168.41 150.54 164.18 146.17 166.16 Z" />
<path fill="#010101" opacity="1.00" d=" M 55.05 163.74 C 59.62 163.81 64.19 163.73 68.76 163.73 C 68.74 164.58 68.72 165.43 68.70 166.29 C 66.88 166.26 65.07 166.25 63.25 166.24 C 63.25 171.25 63.28 176.25 63.23 181.25 C 62.55 181.26 61.18 181.28 60.49 181.28 C 60.49 176.28 60.47 171.28 60.52 166.28 C 58.66 166.25 56.81 166.25 54.96 166.24 C 54.98 165.62 55.03 164.36 55.05 163.74 Z" />
<path fill="#010101" opacity="1.00" d=" M 77.77 177.26 C 77.14 172.81 77.67 168.25 77.48 163.75 C 78.13 163.74 79.42 163.72 80.06 163.71 C 80.11 167.99 79.68 172.32 80.32 176.57 C 81.48 179.76 86.52 180.11 87.85 176.87 C 89.13 172.63 88.25 168.11 88.51 163.75 C 89.15 163.75 90.43 163.73 91.07 163.72 C 90.84 168.14 91.35 172.60 90.72 176.99 C 89.22 182.95 79.53 183.13 77.77 177.26 Z" />
<path fill="#010101" opacity="1.00" d=" M 101.26 163.72 C 104.93 163.96 108.86 163.07 112.30 164.73 C 117.55 167.42 118.02 175.84 113.28 179.27 C 109.85 181.88 105.30 181.11 101.29 181.30 C 101.20 175.44 101.25 169.58 101.26 163.72 M 103.73 166.29 C 103.77 170.46 103.72 174.64 103.79 178.82 C 106.37 178.77 109.15 178.85 111.40 177.37 C 114.49 175.07 114.57 169.98 111.62 167.50 C 109.38 165.72 106.37 166.34 103.73 166.29 Z" />
<path fill="#010101" opacity="1.00" d=" M 126.50 181.26 C 126.51 175.41 126.49 169.56 126.50 163.70 C 127.12 163.70 128.34 163.70 128.96 163.70 C 129.03 169.59 129.08 175.48 128.89 181.36 C 128.29 181.34 127.10 181.29 126.50 181.26 Z" />
</g>
<g id="#e6b617ff">
<path fill="#e6b617" opacity="1.00" d=" M 154.02 191.05 C 161.03 184.75 170.28 181.98 179.09 179.21 C 179.53 180.05 179.90 180.92 180.20 181.82 C 180.91 191.35 179.68 201.69 173.13 209.12 C 170.57 211.43 167.74 213.63 164.34 214.47 C 160.84 215.73 157.11 214.66 153.54 214.38 C 149.98 212.17 145.77 208.75 146.64 204.02 C 147.18 199.05 149.63 193.76 154.02 191.05 Z" />
<path fill="#e6b617" opacity="1.00" d=" M 130.76 197.52 C 131.73 197.14 133.22 197.05 133.78 198.15 C 137.51 203.74 141.18 210.08 140.27 217.08 C 139.57 221.93 135.78 226.02 131.03 227.17 C 128.51 227.94 126.27 226.09 124.67 224.37 C 121.88 220.84 121.86 216.07 122.63 211.85 C 123.89 206.39 127.46 201.90 130.76 197.52 Z" />
<path fill="#e6b617" opacity="1.00" d=" M 144.25 229.27 C 146.83 224.13 153.20 221.40 158.68 223.36 C 165.11 224.39 170.15 228.69 175.64 231.80 C 175.64 232.65 175.64 233.49 175.64 234.35 C 169.79 239.02 162.85 243.29 155.05 242.73 C 150.36 242.90 146.37 239.78 144.34 235.73 C 144.29 233.58 144.26 231.42 144.25 229.27 Z" />
</g>
</svg>
